# This file uses centimeters as units for non-parametric coordinates.

mtllib Paper_Date.mtl
g default
v -5.284079 0.921559 -2.381900
v -1.667781 0.921048 6.297494
v 0.243470 0.757302 -4.684996
v 3.842781 0.497457 4.001476
v -0.781157 0.574911 -4.258077
v 2.835176 0.574910 4.421303
v 0.637143 0.497457 -3.692229
v -0.370459 0.574914 -3.272396
v -4.873420 0.921048 -1.396203
vt 0.045854 0.126804
vt 0.060147 1.012154
vt -0.078631 0.989732
vt -0.092925 0.104382
vt 1.181789 0.125054
vt 1.208076 1.016402
vt 0.073218 0.027208
vt -0.028273 0.004407
vt 1.209226 0.025457
vn 0.065335 0.997492 -0.027222
vn 0.065335 0.997492 -0.027222
vn 0.065335 0.997492 -0.027222
vn 0.065335 0.997492 -0.027222
vn 0.065334 0.997492 -0.027222
vn 0.065334 0.997492 -0.027222
vn 0.065334 0.997492 -0.027222
vn 0.065334 0.997492 -0.027222
vn 0.002618 0.991619 0.129171
vn 0.002618 0.991619 0.129171
vn 0.002618 0.991619 0.129171
vn 0.002618 0.991619 0.129171
vn 0.065473 0.997488 -0.027022
vn 0.065473 0.997488 -0.027022
vn 0.065473 0.997488 -0.027022
vn 0.065473 0.997488 -0.027022
s off
g paper paper_data
usemtl blinn1SG
f 8/1/1 6/2/2 4/3/3 7/4/4
f 9/5/5 2/6/6 6/2/7 8/1/8
f 5/7/9 8/1/10 7/4/11 3/8/12
f 1/9/13 9/5/14 8/1/15 5/7/16
g default
v -0.625297 0.786081 5.435576
v -0.258902 0.817791 6.309094
v -0.625075 0.804591 5.432693
v -0.257434 0.940601 6.289960
v 2.125010 0.593195 4.286849
v 2.492651 0.729205 5.144116
v 2.124788 0.574685 4.289733
v 2.491183 0.606395 5.163249
v 2.333455 0.793491 4.750176
v 2.332555 0.718191 4.761909
v -0.417530 0.929586 5.907754
v -0.416630 1.004887 5.896022
v -0.813633 0.553321 6.309377
v -0.659380 0.553321 6.679591
v -0.625780 1.066321 6.665591
v 3.024940 0.785694 5.144490
v 2.837087 0.272694 4.788276
v 2.991340 0.272694 5.158490
v -0.793133 0.866311 6.300834
v -0.702915 1.066321 6.480464
v 2.857587 0.585684 4.779733
v 2.947806 0.785694 4.959363
vt 1.960584 1.572687
vt 2.055099 1.261703
vt 2.104692 1.269430
vt 1.972775 1.574585
vt 1.981469 0.997374
vt 2.062352 1.009976
vt -0.540084 1.226501
vt -0.845238 1.089215
vt -0.090566 -0.722036
vt 0.214588 -0.584751
vt -1.104692 0.984366
vt -0.350022 -0.826885
vt 1.808897 0.998194
vt 1.940815 1.303350
vt 1.891221 1.311077
vt 1.796706 1.000094
vt 1.898475 1.562804
vt 1.817591 1.575406
vt 0.239847 -0.585571
vt 0.550830 -0.722409
vt 1.305502 1.088841
vt 0.994519 1.225681
vt 0.815159 -0.826885
vt 1.569831 0.984367
vt 1.729267 0.985333
vt 1.590038 -0.825918
vt 1.670923 -0.826885
vt 1.810152 0.984366
vt 1.986376 -0.826739
vt 1.847147 0.984512
vt 1.834956 0.984366
vt 1.974185 -0.826885
vt 0.375002 -0.000000
vt 0.625000 0.000000
vt 0.624998 0.250000
vt 0.499988 0.250000
vt 0.375000 0.152529
vt 0.499987 0.500000
vt 0.624998 0.500000
vt 0.375002 0.750000
vt 0.625000 0.750000
vt 0.625000 1.000000
vt 0.375000 1.000000
vt 0.875000 0.000000
vt 0.875000 0.250000
vt 0.125000 0.000000
vt 0.125000 0.152529
vt 0.375002 0.597471
vt 0.375002 0.250000
vt 0.375002 0.500000
vn -0.920765 0.070778 0.383644
vn -0.920765 0.070778 0.383644
vn -0.920765 0.070778 0.383644
vn -0.920765 0.070778 0.383644
vn -0.080659 0.927617 -0.364720
vn -0.080659 0.927617 -0.364720
vn -0.080659 0.927617 -0.364720
vn -0.080659 0.927617 -0.364720
vn 0.920765 -0.070782 -0.383643
vn 0.920765 -0.070782 -0.383643
vn 0.920765 -0.070782 -0.383643
vn 0.920765 -0.070782 -0.383643
vn 0.040405 -0.960814 0.274235
vn 0.040405 -0.960814 0.274235
vn 0.040405 -0.960814 0.274235
vn 0.040405 -0.960814 0.274235
vn 0.389940 0.137203 0.910562
vn 0.389939 0.137203 0.910562
vn 0.389939 0.137203 0.910562
vn 0.389939 0.137203 0.910562
vn -0.389940 -0.137205 -0.910561
vn -0.389940 -0.137205 -0.910561
vn -0.389940 -0.137205 -0.910561
vn -0.389940 -0.137205 -0.910561
vn 0.920766 -0.070775 -0.383643
vn 0.920766 -0.070775 -0.383643
vn 0.920766 -0.070775 -0.383643
vn 0.920766 -0.070775 -0.383643
vn -0.159929 -0.965454 -0.205722
vn -0.159929 -0.965454 -0.205722
vn -0.159929 -0.965454 -0.205722
vn -0.159929 -0.965454 -0.205722
vn -0.920765 0.070779 0.383644
vn -0.920765 0.070779 0.383644
vn -0.920765 0.070779 0.383644
vn -0.920765 0.070779 0.383644
vn 0.122276 0.986210 0.111524
vn 0.122276 0.986210 0.111524
vn 0.122276 0.986210 0.111524
vn 0.122276 0.986210 0.111524
vn -0.920765 0.070779 0.383644
vn -0.920765 0.070779 0.383644
vn -0.920765 0.070779 0.383644
vn -0.920765 0.070779 0.383644
vn -0.920765 0.070779 0.383644
vn 0.065334 0.997492 -0.027222
vn 0.065334 0.997492 -0.027222
vn 0.065334 0.997492 -0.027222
vn 0.065334 0.997492 -0.027222
vn -0.065334 -0.997492 0.027222
vn -0.065334 -0.997492 0.027222
vn -0.065334 -0.997492 0.027222
vn -0.065334 -0.997492 0.027222
vn 0.384608 0.000000 0.923080
vn 0.384608 0.000000 0.923080
vn 0.384608 0.000000 0.923080
vn 0.384608 0.000000 0.923080
vn -0.384609 -0.000004 -0.923080
vn -0.384609 -0.000004 -0.923080
vn -0.384609 -0.000004 -0.923080
vn -0.384609 -0.000004 -0.923080
vn 0.920765 -0.070778 -0.383644
vn 0.920765 -0.070778 -0.383644
vn 0.920765 -0.070778 -0.383644
vn 0.920765 -0.070778 -0.383644
vn 0.920765 -0.070778 -0.383644
vn -0.225762 0.705332 -0.671966
vn -0.225762 0.705332 -0.671966
vn -0.225762 0.705332 -0.671966
vn -0.225762 0.705332 -0.671966
s off
g paper_data board
usemtl blinn1SG
f 10/10/17 20/11/18 21/12/19 12/13/20
f 12/16/21 21/17/22 18/18/23 14/19/24
f 14/22/25 18/23/26 19/24/27 16/25/28
f 16/28/29 19/29/30 20/30/31 10/31/32
f 11/34/33 17/35/34 15/36/35 13/37/36
f 16/38/37 10/39/38 12/40/39 14/41/40
f 18/23/41 15/26/42 17/27/43 19/24/44
f 20/30/45 19/29/46 17/32/47 11/33/48
f 21/12/49 20/11/50 11/14/51 13/15/52
f 18/18/53 21/17/54 13/20/55 15/21/56
f 22/42/57 23/43/58 24/44/59 29/45/60 28/46/61
f 31/47/62 29/45/63 24/44/64 25/48/65
f 26/49/66 27/50/67 23/51/68 22/52/69
f 23/43/70 27/53/71 25/54/72 24/44/73
f 26/55/74 22/42/75 28/46/76 30/56/77
f 30/57/78 31/47/79 25/48/80 27/50/81 26/49/82
f 28/58/83 29/45/84 31/47/85 30/59/86
g default
v -3.341782 0.876293 -0.181813
v -3.350894 0.979074 -0.155741
v -3.401782 0.984953 -0.062453
v -3.424120 0.885805 -0.030870
v -3.387038 0.818648 -0.104639
v 0.134116 0.700674 1.725337
v 0.125004 0.803456 1.751409
v 0.074116 0.809334 1.844696
v 0.051778 0.710187 1.876279
v 0.088860 0.643030 1.802511
v -3.381123 0.908954 -0.107103
v 0.129775 0.704277 1.733579
v 0.121668 0.795719 1.756775
v 0.076395 0.800950 1.839771
v 0.056521 0.712740 1.867869
v 0.089512 0.652993 1.802239
v 0.354757 0.714981 1.926158
v 0.353182 0.732449 1.930639
v 0.344445 0.733458 1.946656
v 0.340621 0.716614 1.952073
v 0.346995 0.705200 1.939404
v 0.440621 0.714021 1.988256
v 0.440467 0.715742 1.988695
v 0.439956 0.714572 1.989522
v 0.439605 0.715844 1.990278
v 0.439226 0.714185 1.990816
v 0.439855 0.713060 1.989564
vt 0.548284 0.007647
vt 0.373591 0.064409
vt 0.373591 0.248091
vt 0.548284 0.304853
vt 0.656250 0.156250
vt 0.375000 0.312500
vt 0.425000 0.312500
vt 0.475000 0.312500
vt 0.525000 0.312500
vt 0.575000 0.312500
vt 0.625000 0.312500
vt 0.375000 0.688440
vt 0.425000 0.688440
vt 0.475000 0.688440
vt 0.525000 0.688440
vt 0.575000 0.688440
vt 0.625000 0.688440
vt 0.548284 0.695147
vt 0.373591 0.751909
vt 0.373591 0.935591
vt 0.548284 0.992353
vt 0.656250 0.843750
vt 0.500000 0.150000
vt 0.500000 0.837500
vt 0.548284 0.992353
vt 0.373591 0.935591
vt 0.373591 0.751909
vt 0.548284 0.695147
vt 0.656250 0.843750
vt 0.548284 0.992353
vt 0.373591 0.935591
vt 0.373591 0.751909
vt 0.548284 0.695147
vt 0.656250 0.843750
vt 0.548284 0.992353
vt 0.373591 0.935591
vt 0.373591 0.751909
vt 0.548284 0.695147
vt 0.656250 0.843750
vn 0.474935 0.255706 -0.842052
vn 0.474935 0.255706 -0.842052
vn 0.474935 0.255706 -0.842052
vn 0.474935 0.255706 -0.842052
vn 0.065334 0.997492 -0.027222
vn 0.065334 0.997492 -0.027222
vn 0.065334 0.997492 -0.027222
vn 0.065334 0.997492 -0.027222
vn -0.434557 0.360775 0.825228
vn -0.434557 0.360775 0.825228
vn -0.434557 0.360775 0.825228
vn -0.434557 0.360775 0.825228
vn -0.333908 -0.774513 0.537247
vn -0.333908 -0.774513 0.537247
vn -0.333908 -0.774513 0.537247
vn -0.333908 -0.774513 0.537247
vn 0.228196 -0.839451 -0.493202
vn 0.228196 -0.839451 -0.493202
vn 0.228196 -0.839451 -0.493202
vn 0.228196 -0.839451 -0.493202
vn -0.875845 0.044253 -0.480559
vn -0.875845 0.044250 -0.480559
vn -0.875846 0.044251 -0.480558
vn -0.875846 0.044253 -0.480557
vn -0.875847 0.044250 -0.480556
vn -0.875846 0.044250 -0.480557
vn 0.876173 -0.044335 0.479953
vn 0.876176 -0.043975 0.479982
vn 0.875997 -0.044328 0.480276
vn 0.875941 -0.044170 0.480391
vn 0.875746 -0.044535 0.480713
vn 0.875947 -0.044622 0.480339
vn 0.875845 -0.044253 0.480560
vn 0.875844 -0.044252 0.480561
vn 0.875844 -0.044252 0.480561
vn 0.875845 -0.044253 0.480560
vn 0.875844 -0.044251 0.480561
vn 0.875844 -0.044251 0.480561
vn 0.875846 -0.044253 0.480558
vn 0.875846 -0.044253 0.480558
vn 0.875846 -0.044254 0.480557
vn 0.875846 -0.044254 0.480557
vn 0.623993 0.244121 -0.742319
vn 0.623993 0.244121 -0.742319
vn 0.596821 0.248190 -0.763025
vn 0.596821 0.248190 -0.763025
vn 0.221388 0.973374 0.059423
vn 0.221388 0.973374 0.059423
vn 0.195151 0.979757 0.044630
vn 0.195151 0.979757 0.044630
vn -0.270669 0.347476 0.897775
vn -0.270669 0.347476 0.897775
vn -0.302507 0.352273 0.885660
vn -0.302507 0.352273 0.885660
vn -0.171234 -0.770424 0.614106
vn -0.171234 -0.770424 0.614106
vn -0.208815 -0.775137 0.596288
vn -0.208815 -0.775137 0.596288
vn 0.381130 -0.834235 -0.398487
vn 0.381130 -0.834235 -0.398487
vn 0.345536 -0.839191 -0.419957
vn 0.345536 -0.839191 -0.419957
vn 0.568942 0.251965 -0.782827
vn 0.568942 0.251965 -0.782827
vn 0.168729 0.985212 0.029795
vn 0.168729 0.985212 0.029795
vn -0.333986 0.356653 0.872497
vn -0.333986 0.356653 0.872497
vn -0.246031 -0.778491 0.577425
vn -0.246031 -0.778491 0.577425
vn 0.309337 -0.842676 -0.440690
vn 0.309337 -0.842676 -0.440690
s off
g paper_data pen
usemtl blinn1SG
f 32/65/87 33/66/88 38/72/89 37/71/90
f 33/66/91 34/67/92 39/73/93 38/72/94
f 34/67/95 35/68/96 40/74/97 39/73/98
f 35/68/99 36/69/100 41/75/101 40/74/102
f 36/69/103 32/70/104 37/76/105 41/75/106
s 1
f 33/61/107 32/60/108 42/82/109
f 34/62/110 33/61/107 42/82/109
f 35/63/111 34/62/110 42/82/109
f 36/64/112 35/63/111 42/82/109
f 32/60/108 36/64/112 42/82/109
s 2
f 53/94/113 54/95/114 55/83/115
f 54/95/114 56/96/116 55/83/115
f 56/96/116 57/97/117 55/83/115
f 57/97/117 58/98/118 55/83/115
f 58/98/118 53/94/113 55/83/115
s 3
f 37/80/119 38/79/120 44/85/121 43/84/122
f 38/79/120 39/78/123 45/86/124 44/85/121
f 39/78/123 40/77/125 46/87/126 45/86/124
f 40/77/125 41/81/127 47/88/128 46/87/126
f 41/81/127 37/80/119 43/84/122 47/88/128
s 4
f 43/84/129 44/85/130 49/90/131 48/89/132
s 5
f 44/85/133 45/86/134 50/91/135 49/90/136
s 6
f 45/86/137 46/87/138 51/92/139 50/91/140
s 7
f 46/87/141 47/88/142 52/93/143 51/92/144
s 8
f 47/88/145 43/84/146 48/89/147 52/93/148
s 4
f 48/89/132 49/90/131 54/95/149 53/94/150
s 5
f 49/90/136 50/91/135 56/96/151 54/95/152
s 6
f 50/91/140 51/92/139 57/97/153 56/96/154
s 7
f 51/92/144 52/93/143 58/98/155 57/97/156
s 8
f 52/93/148 48/89/147 53/94/157 58/98/158
g default
v 0.702682 0.391602 -5.591044
v 4.747968 0.391602 4.117859
v -4.400998 0.783916 -3.464557
v -0.032897 0.585969 7.055638
v -2.634158 0.648103 -4.200724
v 1.845872 0.450151 6.588109
v 3.441094 0.318927 5.608172
v 4.735003 0.193653 4.123261
v 0.689716 0.193653 -5.585642
v -2.647126 0.450152 -4.195321
v -4.413962 0.585967 -3.459145
v 4.656905 0.391602 3.899303
v 4.643942 0.193653 3.904705
v 1.744736 0.450152 6.345368
v -0.131519 0.585967 6.818947
v -0.118551 0.783916 6.813544
v 1.757701 0.648103 6.339966
v 3.355443 0.516874 5.366078
v 0.778865 0.391602 -5.408199
v 0.765901 0.193653 -5.402788
v -2.562509 0.450152 -3.992242
v -4.331456 0.585967 -3.261126
v -4.318494 0.783915 -3.266527
v -2.549543 0.648101 -3.997634
v -0.844500 0.516874 -4.714003
v -0.927007 0.516874 -4.912022
v -0.939972 0.318927 -4.906620
v -0.857464 0.318929 -4.708591
v 3.342478 0.318927 5.371480
v -6.309599 0.930628 -2.669324
v -6.322564 0.732681 -2.663922
v -6.246380 0.732682 -2.481076
v -2.368340 0.732681 6.826427
v -2.277277 0.732681 7.044982
v -6.233414 0.930628 -2.486469
v -2.355375 0.930628 6.821024
v -2.264313 0.930630 7.039571
v -0.019928 0.783916 7.050244
v 1.858837 0.648101 6.582697
v 3.454060 0.516874 5.602770
vt 0.895962 1.281754
vt 1.281754 0.320705
vt 1.259597 0.310296
vt 1.258348 0.260538
vt 1.280504 0.270947
vt 0.872558 1.221587
vt 0.894713 1.231996
vt 1.000966 1.020176
vt 0.976971 1.008904
vt 1.073563 0.766465
vt 1.098172 0.778027
vt 1.096923 0.728269
vt 0.999717 0.970418
vt 1.072314 0.716708
vt 0.975722 0.959145
vt 1.168098 0.532784
vt 1.192094 0.544057
vt 1.190845 0.494300
vt 1.166849 0.483027
vt -0.281754 0.679295
vt -0.274403 0.371840
vt -0.209749 0.114398
vt -0.083276 -0.104278
vt 0.131769 -0.219554
vt 0.105286 -0.231996
vt 0.104037 -0.281754
vt 0.130521 -0.269313
vt -0.054595 -0.090804
vt -0.180334 0.128217
vt -0.245723 0.385314
vt -0.255271 0.691737
vt -0.179087 0.177974
vt -0.244473 0.435072
vt -0.053347 -0.041047
vt 0.873805 1.271345
vt -0.254023 0.741495
vt -0.280505 0.729053
vt -0.273154 0.421598
vt -0.208500 0.164156
vt -0.082027 -0.054521
vn 0.065336 0.997492 -0.027215
vn 0.065335 0.997492 -0.027218
vn 0.065335 0.997492 -0.027218
vn 0.065336 0.997492 -0.027215
vn -0.065334 -0.997492 0.027222
vn -0.065334 -0.997492 0.027222
vn -0.065334 -0.997492 0.027222
vn -0.065334 -0.997492 0.027222
vn 0.065336 0.997492 -0.027218
vn 0.065335 0.997492 -0.027220
vn 0.065335 0.997492 -0.027220
vn 0.065336 0.997492 -0.027218
vn -0.065331 -0.997492 0.027225
vn -0.065332 -0.997492 0.027223
vn -0.065332 -0.997492 0.027223
vn -0.065331 -0.997492 0.027225
vn -0.065333 -0.997492 0.027220
vn -0.065333 -0.997492 0.027220
vn -0.065334 -0.997492 0.027219
vn -0.065334 -0.997492 0.027219
vn -0.065334 -0.997492 0.027222
vn -0.065334 -0.997492 0.027222
vn -0.065335 -0.997492 0.027222
vn -0.065335 -0.997492 0.027222
vn 0.065334 0.997492 -0.027220
vn 0.065334 0.997492 -0.027220
vn 0.065334 0.997492 -0.027218
vn 0.065334 0.997492 -0.027218
vn 0.065335 0.997492 -0.027221
vn 0.065335 0.997492 -0.027221
vn 0.065336 0.997492 -0.027219
vn 0.065336 0.997492 -0.027219
vn 0.065334 0.997492 -0.027222
vn 0.065334 0.997492 -0.027222
vn 0.065334 0.997492 -0.027222
vn 0.065334 0.997492 -0.027222
vn -0.065333 -0.997492 0.027226
vn -0.065334 -0.997492 0.027224
vn -0.065334 -0.997492 0.027224
vn -0.065333 -0.997492 0.027226
vn -0.065335 -0.997492 0.027222
vn -0.065335 -0.997492 0.027222
vn -0.065335 -0.997492 0.027222
vn -0.065335 -0.997492 0.027222
vn 0.065334 0.997492 -0.027222
vn 0.065334 0.997492 -0.027222
vn 0.065334 0.997492 -0.027222
vn 0.065334 0.997492 -0.027222
vn 0.065335 0.997492 -0.027220
vn 0.065335 0.997492 -0.027220
vn 0.065334 0.997492 -0.027224
vn 0.065334 0.997492 -0.027224
vn 0.065336 0.997492 -0.027219
vn 0.065336 0.997492 -0.027219
vn -0.065334 -0.997492 0.027226
vn -0.065334 -0.997492 0.027224
vn -0.065334 -0.997492 0.027224
vn -0.065334 -0.997492 0.027226
vn -0.065335 -0.997492 0.027224
vn -0.065335 -0.997492 0.027224
vn -0.065334 -0.997492 0.027226
vn -0.065334 -0.997492 0.027226
vn 0.065334 0.997492 -0.027225
vn 0.065334 0.997492 -0.027225
vn 0.920766 -0.070775 -0.383640
vn 0.920768 -0.070772 -0.383637
vn 0.920768 -0.070772 -0.383637
vn 0.920766 -0.070775 -0.383640
vn 0.920766 -0.070782 -0.383640
vn 0.920766 -0.070782 -0.383640
vn 0.920767 -0.070786 -0.383637
vn 0.920767 -0.070786 -0.383637
vn -0.384609 -0.000000 -0.923080
vn -0.384609 -0.000000 -0.923080
vn -0.384609 -0.000000 -0.923080
vn -0.384609 -0.000000 -0.923080
vn -0.384608 0.000001 -0.923080
vn -0.384608 0.000001 -0.923080
vn -0.384608 0.000001 -0.923080
vn -0.384608 0.000001 -0.923080
vn -0.384612 -0.000023 -0.923078
vn -0.384612 -0.000023 -0.923078
vn -0.384612 -0.000023 -0.923078
vn -0.384612 -0.000023 -0.923078
vn -0.384608 -0.000024 -0.923080
vn -0.384608 -0.000024 -0.923080
vn -0.384608 -0.000024 -0.923080
vn -0.384608 -0.000024 -0.923080
vn -0.920767 0.070774 0.383638
vn -0.920766 0.070773 0.383641
vn -0.920766 0.070773 0.383641
vn -0.920767 0.070774 0.383638
vn -0.920764 0.070779 0.383647
vn -0.920764 0.070779 0.383647
vn -0.920762 0.070785 0.383650
vn -0.920762 0.070785 0.383650
vn -0.002954 0.027475 0.999618
vn -0.002954 0.027475 0.999618
vn -0.002954 0.027475 0.999618
vn -0.002954 0.027475 0.999618
vn 0.242198 0.010613 0.970169
vn 0.242198 0.010613 0.970169
vn 0.242198 0.010613 0.970169
vn 0.242198 0.010613 0.970169
vn 0.522736 -0.010954 0.852424
vn 0.522736 -0.010954 0.852424
vn 0.522736 -0.010954 0.852424
vn 0.522736 -0.010954 0.852424
vn 0.752252 -0.031311 0.658131
vn 0.752252 -0.031311 0.658131
vn 0.752252 -0.031311 0.658131
vn 0.752252 -0.031311 0.658131
s 1
g paper_data board1
usemtl blinn1SG
f 61/106/159 81/107/160 82/108/161 63/109/162
s 2
f 68/110/163 79/112/164 80/113/165 69/111/166
s 3
f 63/109/167 82/108/168 83/114/169 84/115/170
s 4
f 85/116/171 86/117/172 79/112/173 68/110/174
f 72/127/175 87/126/176 65/121/177 64/120/178
s 2
f 73/128/179 72/127/180 64/120/181 62/119/182
s 1
f 75/130/183 74/131/184 96/136/185 97/137/186
s 3
f 76/132/187 75/130/188 97/137/189 98/138/190
s 4
f 79/112/173 86/117/172 87/126/176 72/127/175
s 2
f 80/113/165 79/112/164 72/127/180 73/128/179
s 1
f 82/108/161 81/107/160 74/131/184 75/130/183
s 3
f 83/114/169 82/108/168 75/130/188 76/132/187
s 5
f 84/115/191 83/114/192 77/101/193 59/100/194
s 6
f 67/103/195 78/102/196 86/117/197 85/116/198
f 87/126/199 86/117/197 78/102/196 71/125/200
f 65/121/201 87/126/199 71/125/200 66/124/202
s 5
f 70/122/203 76/132/204 98/138/205 60/123/206
f 77/101/193 83/114/192 76/132/204 70/122/203
s 7
f 81/107/207 93/133/208 94/134/209 74/131/210
f 88/99/211 93/133/208 81/107/207 61/106/212
s 8
f 69/111/213 80/113/214 90/104/215 89/105/216
f 91/129/217 90/104/215 80/113/214 73/128/218
f 92/118/219 91/129/217 73/128/218 62/119/220
s 7
f 74/131/210 94/134/209 95/135/221 96/136/222
s 9
f 70/122/223 60/123/224 66/124/225 71/125/226
f 77/101/227 70/122/223 71/125/226 78/102/228
f 59/100/229 77/101/227 78/102/228 67/103/230
s off
f 67/103/231 85/116/232 84/115/233 59/100/234
f 85/116/235 68/110/236 63/109/237 84/115/238
f 68/110/239 69/111/240 61/106/241 63/109/242
f 69/111/243 89/105/244 88/99/245 61/106/246
s 10
f 89/105/247 90/104/248 93/133/249 88/99/250
f 94/134/251 93/133/249 90/104/248 91/129/252
f 95/135/253 94/134/251 91/129/252 92/118/254
s off
f 96/136/255 95/135/256 92/118/257 62/119/258
f 97/137/259 96/136/260 62/119/261 64/120/262
f 98/138/263 97/137/264 64/120/265 65/121/266
f 60/123/267 98/138/268 65/121/269 66/124/270
