# This file uses centimeters as units for non-parametric coordinates.

mtllib Light_Board.mtl
g default
v -5.632364 5.864008 -0.697488
v -2.327784 5.917674 -0.697488
v -5.694199 9.671625 -0.697488
v -2.389619 9.725287 -0.697488
vt 0.018368 0.004111
vt 1.000000 -0.000000
vt 0.981632 0.995888
vt -0.000000 1.000000
vn 0.000000 0.000000 1.000000
vn 0.000000 0.000000 1.000000
vn 0.000000 0.000000 1.000000
vn 0.000000 0.000000 1.000000
s off
g photo4 light_board
f 1/1/1 2/2/2 4/3/3 3/4/4
g default
v 0.063553 5.994253 -0.657123
v 3.488141 5.946926 -0.628866
v 0.097089 8.422634 -0.654344
v 3.521677 8.375308 -0.626087
vt 0.000000 0.000000
vt 0.811321 0.000000
vt 0.000000 1.000000
vt 0.811321 1.000000
vn -0.008265 -0.001030 0.999965
vn -0.008265 -0.001030 0.999965
vn -0.008265 -0.001030 0.999965
vn -0.008265 -0.001030 0.999965
s off
g light_board photo3
f 5/5/5 6/6/6 8/8/7 7/7/8
g default
v -1.102706 9.997344 -0.702427
v 1.652611 10.011398 -0.693990
v -1.121320 13.646308 -0.700984
v 1.633997 13.660360 -0.692548
vt 0.006765 0.012328
vt 1.000000 0.000000
vt 0.993235 0.987671
vt 0.000000 1.000000
vn -0.003060 -0.000411 0.999995
vn -0.003060 -0.000411 0.999995
vn -0.003060 -0.000411 0.999995
vn -0.003060 -0.000411 0.999995
s off
g light_board photo2
f 9/9/9 10/10/10 12/11/11 11/12/12
g default
v 4.634433 9.535555 -0.704360
v 7.688033 9.355649 -0.689689
v 4.872699 13.579572 -0.705283
v 7.926298 13.399663 -0.690614
vt 0.000000 0.057641
vt 0.927561 0.000000
vt 1.000000 0.942360
vt 0.072439 1.000000
vn -0.004774 0.000510 0.999988
vn -0.004774 0.000510 0.999988
vn -0.004774 0.000510 0.999988
vn -0.004774 0.000510 0.999988
s off
g light_board photo1
f 13/13/13 14/14/14 16/15/15 15/16/16
g default
v -7.810870 5.699866 -1.082396
v -7.810870 5.699866 -0.568385
v -7.810870 13.763539 -1.082396
v -7.810870 13.763539 -0.568385
v 8.766016 13.763539 -1.082396
v 8.766016 13.763539 -0.568385
v 8.766016 5.699866 -1.082396
v 8.766016 5.699866 -0.568385
v 8.318483 6.038562 -0.568385
v -7.363337 6.038562 -0.568385
v 8.318483 13.424842 -0.568385
v -7.363337 13.424842 -0.568385
v 8.318483 6.038562 -0.764846
v -7.363337 6.038562 -0.764846
v 8.318483 13.424842 -0.764846
v -7.363337 13.424842 -0.764846
v 8.318483 5.927663 -0.568385
v -7.363337 5.927663 -0.568385
v 8.318483 5.927663 -0.764846
v -7.363337 5.927663 -0.764846
v -7.363337 13.539629 -0.568385
v 8.318483 13.539629 -0.568385
v -7.363337 13.539629 -0.764846
v 8.318483 13.539629 -0.764846
vt 0.375000 0.000000
vt 0.625000 0.000000
vt 0.375000 0.250000
vt 0.625000 0.250000
vt 0.375000 0.500000
vt 0.625000 0.500000
vt 0.375000 0.750000
vt 0.625000 0.750000
vt 0.375000 1.000000
vt 0.625000 1.000000
vt 0.875000 0.000000
vt 0.875000 0.250000
vt 0.125000 0.000000
vt 0.125000 0.250000
vt 0.625000 0.000000
vt 0.875000 0.000000
vt 0.875000 0.250000
vt 0.625000 0.250000
vt 0.625000 0.000000
vt 0.875000 0.000000
vt 0.875000 0.250000
vt 0.625000 0.250000
vt 0.625000 0.000000
vt 0.875000 0.000000
vt 0.875000 0.000000
vt 0.625000 0.000000
vt 0.875000 0.250000
vt 0.625000 0.250000
vt 0.625000 0.250000
vt 0.875000 0.250000
vn -1.000000 0.000000 0.000000
vn -1.000000 0.000000 0.000000
vn -1.000000 0.000000 0.000000
vn -1.000000 0.000000 0.000000
vn 0.000000 1.000000 0.000000
vn 0.000000 1.000000 0.000000
vn 0.000000 1.000000 0.000000
vn 0.000000 1.000000 0.000000
vn 1.000000 0.000000 0.000000
vn 1.000000 0.000000 0.000000
vn 1.000000 0.000000 0.000000
vn 1.000000 0.000000 0.000000
vn 0.000000 -1.000000 0.000000
vn 0.000000 -1.000000 0.000000
vn 0.000000 -1.000000 0.000000
vn 0.000000 -1.000000 0.000000
vn 0.000000 0.000000 1.000000
vn 0.000000 0.000000 1.000000
vn 0.000000 0.000000 1.000000
vn 0.000000 0.000000 1.000000
vn -0.000000 0.000000 -1.000000
vn -0.000000 0.000000 -1.000000
vn -0.000000 0.000000 -1.000000
vn -0.000000 0.000000 -1.000000
vn 0.000000 0.000000 1.000000
vn 0.000000 0.000000 1.000000
vn 0.000000 0.000000 1.000000
vn 0.000000 0.000000 1.000000
vn 0.000000 -0.000000 1.000000
vn 0.000000 -0.000000 1.000000
vn 0.000000 -0.000000 1.000000
vn 0.000000 -0.000000 1.000000
vn 0.000000 1.000000 0.000000
vn 0.000000 1.000000 0.000000
vn 0.000000 1.000000 0.000000
vn 0.000000 1.000000 0.000000
vn -1.000000 0.000000 0.000000
vn -1.000000 0.000000 0.000000
vn -1.000000 0.000000 0.000000
vn -1.000000 0.000000 0.000000
vn 0.000000 -1.000000 0.000000
vn 0.000000 -1.000000 0.000000
vn 0.000000 -1.000000 0.000000
vn 0.000000 -1.000000 0.000000
vn 1.000000 0.000000 0.000000
vn 1.000000 0.000000 0.000000
vn 1.000000 0.000000 0.000000
vn 1.000000 0.000000 0.000000
vn -0.000000 0.000000 -1.000000
vn -0.000000 0.000000 -1.000000
vn -0.000000 0.000000 -1.000000
vn -0.000000 0.000000 -1.000000
vn -1.000000 0.000000 0.000000
vn -1.000000 0.000000 0.000000
vn 0.000000 0.000000 1.000000
vn 0.000000 0.000000 1.000000
vn 1.000000 0.000000 0.000000
vn 1.000000 0.000000 0.000000
vn -0.000000 0.000000 -1.000000
vn -0.000000 0.000000 -1.000000
vn -0.000000 0.000000 -1.000000
vn -0.000000 0.000000 -1.000000
vn 1.000000 0.000000 0.000000
vn 1.000000 0.000000 0.000000
vn 0.000000 0.000000 1.000000
vn 0.000000 0.000000 1.000000
vn -1.000000 0.000000 0.000000
vn -1.000000 0.000000 0.000000
s off
g light_board board
f 17/17/17 18/18/18 20/20/19 19/19/20
f 19/19/21 20/20/22 22/22/23 21/21/24
f 21/21/25 22/22/26 24/24/27 23/23/28
f 23/23/29 24/24/30 18/26/31 17/25/32
s 1
f 30/35/33 29/36/34 31/37/35 32/38/36
s off
f 23/29/37 17/17/38 19/19/39 21/30/40
s 2
f 18/18/41 24/27/42 25/32/43 26/31/44
f 24/27/42 22/28/45 27/33/46 25/32/43
f 22/28/45 20/20/47 28/34/48 27/33/46
f 20/20/47 18/18/41 26/31/44 28/34/48
s off
f 34/39/49 33/40/50 35/41/51 36/42/52
s 3
f 25/32/53 27/33/54 31/37/55 29/36/56
s off
f 38/43/57 37/44/58 39/45/59 40/46/60
s 4
f 28/34/61 26/31/62 30/35/63 32/38/64
s off
f 26/31/65 25/32/66 33/40/67 34/39/68
s 3
f 25/32/53 29/36/56 35/41/69 33/40/70
s 1
f 29/36/34 30/35/33 36/42/71 35/41/72
s 4
f 30/35/63 26/31/62 34/39/73 36/42/74
s off
f 27/33/75 28/34/76 37/44/77 38/43/78
s 4
f 28/34/61 32/38/64 39/45/79 37/44/80
s 1
f 32/38/36 31/37/35 40/46/81 39/45/82
s 3
f 31/37/55 27/33/54 38/43/83 40/46/84
